<svg xmlns="http://www.w3.org/2000/svg" xmlns:xlink="http://www.w3.org/1999/xlink" width="516.425" height="109.171" viewBox="0 0 516.425 109.171">
  <defs>
    <clipPath id="clip-path">
      <rect width="516.424" height="109.171" fill="none"/>
    </clipPath>
  </defs>
  <g id="MWP_logo_1" data-name="MWP logo 1" clip-path="url(#clip-path)">
    <g id="Grupo_5" data-name="Grupo 5" transform="translate(507.27 1.575)">
      <path id="Trazado_20" data-name="Trazado 20" d="M1029.153-514.276a4.546,4.546,0,0,1-4.569-4.552,4.559,4.559,0,0,1,4.569-4.568,4.573,4.573,0,0,1,4.585,4.568A4.56,4.56,0,0,1,1029.153-514.276Zm0-8.442a3.87,3.87,0,0,0-3.855,3.889,3.841,3.841,0,0,0,3.855,3.855,3.87,3.87,0,0,0,3.888-3.855A3.9,3.9,0,0,0,1029.153-522.717Zm1.936,6.709h-.477a.253.253,0,0,1-.2-.137l-1.375-2.174-.2-.051h-.678v2.107a.26.26,0,0,1-.239.255h-.424a.243.243,0,0,1-.221-.255v-5.129c0-.222.1-.358.306-.374.255-.035.916-.051,1.29-.051,1.408,0,2.225.425,2.225,1.716v.067a1.431,1.431,0,0,1-1.138,1.529l1.307,2.123a.406.406,0,0,1,.034.152C1031.293-516.11,1031.242-516.008,1031.09-516.008Zm-.849-4.093c0-.68-.391-.918-1.324-.918h-.782v1.9c.188,0,.646.017.782.017.95,0,1.324-.255,1.324-.935Z" transform="translate(-1024.584 523.396)" fill="#002e49"/>
    </g>
    <g id="Grupo_7" data-name="Grupo 7">
      <path id="Trazado_21" data-name="Trazado 21" d="M742.635-506.927c-3.477-8.024-12.2-12.742-17.387-13.564a26.4,26.4,0,0,0-11,.364l-.2-.079A32.231,32.231,0,0,0,697.79-524.6a32.169,32.169,0,0,0-24.906,11.756l-.24.365c-11.528.622-21.114,9.829-21.732,20.888-2.741,1.854-10.059,7.9-12.39,20.824a28.226,28.226,0,0,0,5.31,21.441,25.638,25.638,0,0,0,18.626,9.937c.218.031,5.455.78,17.139-2.452l-.459,2.292c-1.137,5.648-2.854,14.186-3.553,18.72a4.164,4.164,0,0,0,1.389,4.027,3.438,3.438,0,0,0,2.136.717,4.455,4.455,0,0,0,1.763-.383c8.465-3.641,14.106-17.4,16.731-25.337a32.341,32.341,0,0,1,4.257-8.652c4.891-6.54,13.625-10.8,25.96-12.654l.106-.018c.547-.056,13.465-1.533,20.912-13.222h0c1.8-2.831,4.2-7.213,4.2-12.537A20.8,20.8,0,0,0,742.635-506.927Z" transform="translate(-638.133 524.596)" fill="#299da7"/>
      <g id="Grupo_6" data-name="Grupo 6" transform="translate(189.466 0.991)">
        <path id="Trazado_22" data-name="Trazado 22" d="M817.052-479.684h-2.891a1.184,1.184,0,0,1-1.181-1.18v-34.992c0-.118,0-.177-.059-.177s-.059,0-.118.118l-8.438,17.467a2.534,2.534,0,0,1-2.656,1.71H799a2.536,2.536,0,0,1-2.657-1.71L787.9-515.915c-.059-.118-.059-.118-.118-.118s-.059.059-.059.177v34.992a1.183,1.183,0,0,1-1.18,1.18h-2.892a1.183,1.183,0,0,1-1.18-1.18v-40.952a1.712,1.712,0,0,1,1.712-1.712h3.835c1.062,0,1.535.236,1.888,1l9.737,20.241c.236.53.414.648.708.648s.473-.118.709-.648l9.736-20.241c.354-.767.827-1,1.888-1h3.836a1.713,1.713,0,0,1,1.713,1.712v40.952A1.184,1.184,0,0,1,817.052-479.684Z" transform="translate(-782.473 523.939)" fill="#299da7"/>
        <path id="Trazado_23" data-name="Trazado 23" d="M821.218-479.684h-3.245a1.125,1.125,0,0,1-1.063-1.18v-41.542a1.072,1.072,0,0,1,1.063-1.121h3.245a1.072,1.072,0,0,1,1.062,1.121v41.542A1.121,1.121,0,0,1,821.218-479.684Z" transform="translate(-771.707 523.939)" fill="#299da7"/>
        <path id="Trazado_24" data-name="Trazado 24" d="M857.449-479.684h-3.658a1.951,1.951,0,0,1-1.889-.944l-18.234-34.638c-.059-.118-.117-.177-.176-.177s-.059.059-.059.177V-480.8a1.11,1.11,0,0,1-1.063,1.121H829.3c-.589,0-1.062-.118-1.062-.708v-41.483a1.663,1.663,0,0,1,1.712-1.653H833.2c1.651,0,1.947.3,2.419,1.18l18.116,34.462.118.176c.058,0,.058-.117.058-.176v-34.521a1.11,1.11,0,0,1,1.062-1.121H858.1a1.071,1.071,0,0,1,1.062,1.121V-481.4A1.712,1.712,0,0,1,857.449-479.684Z" transform="translate(-768.165 523.939)" fill="#299da7"/>
        <path id="Trazado_25" data-name="Trazado 25" d="M870.564-479.172a83.137,83.137,0,0,1-10.739-.591,1.346,1.346,0,0,1-1.239-1.475v-40.538a1.381,1.381,0,0,1,1.239-1.475,83.2,83.2,0,0,1,10.739-.589c10.917,0,17.881,5.6,17.881,18.351v7.966C888.445-484.9,881.481-479.172,870.564-479.172Zm12.511-26.318c0-10.68-5.429-13.749-12.511-13.749-2.772,0-4.6.059-6.549.177v35.17c1.887.117,3.776.117,6.549.117,7.082,0,12.511-3.127,12.511-13.749Z" transform="translate(-758.677 523.841)" fill="#299da7"/>
        <path id="Trazado_26" data-name="Trazado 26" d="M897.9-479.172a59.044,59.044,0,0,1-9.8-.826c-1-.177-1.121-.413-1.121-1.063v-2.36a.913.913,0,0,1,1-.944h.177c2.715.236,7.023.354,9.737.354,7.082,0,8.969-2.833,8.969-6.964,0-2.951-1.712-4.6-7.082-7.907l-5.723-3.481c-5.429-3.305-8.144-6.314-8.144-11.035,0-7.139,5.134-10.443,14.1-10.443a79.919,79.919,0,0,1,10.266.708c.591.118,1,.413,1,1v2.537a.914.914,0,0,1-1,.944h-.118c-2.6-.177-6.727-.353-10.148-.353-6.079,0-8.675,1.3-8.675,5.6,0,2.774,1.948,4.426,6.432,7.141l5.429,3.245c6.844,4.072,9.265,7.317,9.265,12.038C912.475-485.308,909.524-479.172,897.9-479.172Z" transform="translate(-750.131 523.841)" fill="#299da7"/>
        <path id="Trazado_27" data-name="Trazado 27" d="M965.237-522.347l-6.549,39.89c-.413,2.419-1.771,3.01-3.66,3.01h-2.537a3.553,3.553,0,0,1-3.363-2.951l-5.782-21.833c-.118-.53-.177-.53-.356-.53h-.118c-.177,0-.235,0-.353.53L936.678-482.4a3.555,3.555,0,0,1-3.364,2.951h-2.478c-1.887,0-3.246-.591-3.658-3.01l-6.55-39.89v-.177a.961.961,0,0,1,1-1h3.423a1.071,1.071,0,0,1,1,1l5.723,37.589c.118.591.06.886.3.886s.3-.354.413-.886l5.782-21.833c.414-1.594,1.24-2.36,2.774-2.36h3.776c1.535,0,2.361.767,2.774,2.36l5.782,21.833c.118.532.177.886.414.886s.177-.3.3-.886l5.724-37.589a1.069,1.069,0,0,1,1-1h3.422a.961.961,0,0,1,1,1Z" transform="translate(-739.281 523.939)" fill="#299da7"/>
        <path id="Trazado_28" data-name="Trazado 28" d="M964.183-479.684h-3.246a1.125,1.125,0,0,1-1.062-1.18v-41.542a1.071,1.071,0,0,1,1.062-1.121h3.246a1.073,1.073,0,0,1,1.062,1.121v41.542A1.122,1.122,0,0,1,964.183-479.684Z" transform="translate(-727.01 523.939)" fill="#299da7"/>
        <path id="Trazado_29" data-name="Trazado 29" d="M998.834-518.925H987.328v38.061a1.122,1.122,0,0,1-1.062,1.18H983.02a1.125,1.125,0,0,1-1.062-1.18v-38.061H970.451c-.648,0-1.18-.294-1.18-.944v-2.6a1.126,1.126,0,0,1,1.18-1.062h28.383a1.038,1.038,0,0,1,1.121,1.062v2.6C999.955-519.278,999.484-518.925,998.834-518.925Z" transform="translate(-724.073 523.939)" fill="#299da7"/>
        <path id="Trazado_30" data-name="Trazado 30" d="M1027.245-479.684h-3.01a1.183,1.183,0,0,1-1.18-1.18v-19.591h-20.181v19.591a1.183,1.183,0,0,1-1.18,1.18h-3.009a1.184,1.184,0,0,1-1.181-1.18v-41.483a1.184,1.184,0,0,1,1.181-1.18h3.009a1.184,1.184,0,0,1,1.18,1.18v17.113h20.181v-17.113a1.184,1.184,0,0,1,1.18-1.18h3.01a1.184,1.184,0,0,1,1.18,1.18v41.483A1.183,1.183,0,0,1,1027.245-479.684Z" transform="translate(-715.246 523.939)" fill="#299da7"/>
        <path id="Trazado_31" data-name="Trazado 31" d="M800.447-447.642c-1.7,0-3.966-.14-5.736-.211v17.207a1.419,1.419,0,0,1-1.415,1.416h-9.136a1.361,1.361,0,0,1-1.416-1.345v-47.588c0-2.407.992-3.044,3.187-3.4a104.158,104.158,0,0,1,14.376-.921c10.693,0,21.244,3.754,21.244,17.067v.638C821.55-451.536,811-447.642,800.447-447.642Zm9.065-17.774c0-5.027-3.115-7.011-9.065-7.011-.991,0-4.886.142-5.736.213v14.447c.78.07,4.958.142,5.736.142,6.3,0,9.065-2.338,9.065-7.153Z" transform="translate(-782.389 536.771)" fill="#002e49"/>
        <path id="Trazado_32" data-name="Trazado 32" d="M838.1-428.743c-11.26,0-20.395-4.249-20.395-20.4v-31.513A1.361,1.361,0,0,1,819.118-482h9.276a1.361,1.361,0,0,1,1.416,1.345v31.513c0,7.223,1.912,10.269,8.285,10.269s8.358-3.045,8.358-10.269v-31.513A1.36,1.36,0,0,1,847.869-482h9.206a1.423,1.423,0,0,1,1.487,1.345v31.513C858.562-432.992,849.356-428.743,838.1-428.743Z" transform="translate(-771.459 536.923)" fill="#002e49"/>
        <path id="Trazado_33" data-name="Trazado 33" d="M895.807-429.229H884.973c-.778,0-1.062-.708-1.416-1.416l-9.489-17.916-.78.071c-1.487,0-3.682-.142-5.027-.142v17.987a1.42,1.42,0,0,1-1.416,1.416h-9.207a1.419,1.419,0,0,1-1.415-1.416v-47.518c0-2.407.991-3.044,3.186-3.4a111.99,111.99,0,0,1,14.376-.921c12.038,0,21.316,4.036,21.316,16.572v.92c0,7.506-3.966,12.109-9.136,14.163l10.694,19.969a1.849,1.849,0,0,1,.213.78C896.871-429.582,896.587-429.229,895.807-429.229Zm-12.746-36.682c0-4.321-3.329-6.3-9.278-6.3-.991,0-4.674.142-5.524.213v13.6c.778.071,4.248.142,5.027.142,7.436,0,9.774-1.912,9.774-6.727Z" transform="translate(-759.416 536.771)" fill="#002e49"/>
        <path id="Trazado_34" data-name="Trazado 34" d="M910.612-447.642c-1.7,0-3.967-.14-5.738-.211v17.207a1.419,1.419,0,0,1-1.415,1.416h-9.136a1.361,1.361,0,0,1-1.416-1.345v-47.588c0-2.407.991-3.044,3.187-3.4a104.158,104.158,0,0,1,14.376-.921c10.693,0,21.244,3.754,21.244,17.067v.638C931.714-451.536,921.163-447.642,910.612-447.642Zm9.064-17.774c0-5.027-3.116-7.011-9.064-7.011-.992,0-4.887.142-5.738.213v14.447c.78.07,4.958.142,5.738.142,6.3,0,9.064-2.338,9.064-7.153Z" transform="translate(-747.947 536.771)" fill="#002e49"/>
        <path id="Trazado_35" data-name="Trazado 35" d="M948.072-428.591c-11.685,0-20.962-6.3-20.962-22.732v-8.427c0-16.429,9.276-22.732,20.962-22.732s20.962,6.3,20.962,22.732v8.427C969.033-434.895,959.755-428.591,948.072-428.591Zm8.781-31.159c0-8.5-2.833-12.109-8.781-12.109s-8.711,3.611-8.711,12.109v8.427c0,8.5,2.762,12.11,8.711,12.11s8.781-3.612,8.781-12.11Z" transform="translate(-737.254 536.771)" fill="#002e49"/>
        <path id="Trazado_36" data-name="Trazado 36" d="M980.532-428.591a52.58,52.58,0,0,1-13.384-1.558c-.709-.213-1.416-.637-1.416-1.416v-6.94a1.176,1.176,0,0,1,1.273-1.345h.213c2.9.284,10.693.849,13.456.849,4.886,0,6.3-1.558,6.3-4.957,0-2.054-.991-3.187-4.673-5.382l-9.773-5.807c-6.587-3.895-8.358-8.356-8.358-13.525,0-7.791,4.392-13.81,18.13-13.81a78.2,78.2,0,0,1,15.013,1.558,1.243,1.243,0,0,1,1.062,1.275v7.153a1.078,1.078,0,0,1-1.2,1.2h-.142c-1.982-.142-10.2-.778-15.013-.778-4.036,0-5.524,1.2-5.524,3.753,0,1.983.92,2.9,4.745,4.957l9.064,4.887c7.365,3.966,9.56,8.64,9.56,14.376C999.865-436.593,994.907-428.591,980.532-428.591Z" transform="translate(-725.666 536.771)" fill="#002e49"/>
        <path id="Trazado_37" data-name="Trazado 37" d="M1028.191-429.511a83.638,83.638,0,0,1-13.738.92c-9.135,0-17.209-2.336-17.209-15.225v-23.512c0-12.888,8.145-15.154,17.28-15.154a82.283,82.283,0,0,1,13.667.921c.992.142,1.418.495,1.418,1.416v6.586a1.422,1.422,0,0,1-1.418,1.416h-14.376c-3.328,0-4.531,1.133-4.531,4.815v6.445h18.341a1.42,1.42,0,0,1,1.415,1.416v6.727a1.419,1.419,0,0,1-1.415,1.416h-18.341v7.507c0,3.682,1.2,4.815,4.531,4.815h14.376a1.422,1.422,0,0,1,1.418,1.416V-431C1029.609-430.079,1029.183-429.653,1028.191-429.511Z" transform="translate(-715.327 536.771)" fill="#002e49"/>
      </g>
      <path id="Trazado_38" data-name="Trazado 38" d="M714.131-416.083A3.438,3.438,0,0,1,712-416.8a4.164,4.164,0,0,1-1.389-4.027c.7-4.552,2.427-13.12,3.568-18.788l.446-2.224c-11.686,3.234-16.92,2.482-17.139,2.452a25.637,25.637,0,0,1-18.628-9.938,28.222,28.222,0,0,1-5.31-21.439c2.333-12.926,9.651-18.97,12.391-20.824.618-11.059,10.2-20.266,21.732-20.888l.239-.365A32.169,32.169,0,0,1,732.813-524.6a32.227,32.227,0,0,1,16.257,4.391l.2.079a26.408,26.408,0,0,1,11-.364c5.189.822,13.909,5.539,17.386,13.564a20.805,20.805,0,0,1,10.405,18.04c0,5.325-2.4,9.706-4.2,12.538h0c-7.445,11.69-20.363,13.167-20.91,13.224l-.108.018c-12.335,1.857-21.069,6.114-25.96,12.654a32.52,32.52,0,0,0-4.257,8.653c-2.625,7.932-8.267,21.7-16.731,25.335A4.455,4.455,0,0,1,714.131-416.083Zm.9-29.864a3.65,3.65,0,0,1,2.527.948,3.914,3.914,0,0,1,1.041,3.736l-.49,2.441c-1.128,5.6-2.827,14.054-3.524,18.536,7.135-3.366,12.3-16.975,14.2-22.727a36.167,36.167,0,0,1,4.87-9.849c5.547-7.415,15.164-12.2,28.581-14.22l.2-.03c.2-.024,11.652-1.382,18.03-11.4h0c2.438-3.826,3.573-7.124,3.573-10.378a16.8,16.8,0,0,0-8.929-14.855l-.658-.35-.441-1.132c-2.784-6.63-10.262-10.676-14.432-11.307l-.2-.041a22.933,22.933,0,0,0-9.8.5l-.614.147-1.8-.735a28.2,28.2,0,0,0-14.351-3.913,28.158,28.158,0,0,0-21.669,10.13l-1.009,1.957H708.91c-10.115,0-18.987,8.43-18.987,18.038v1.209l-1.069.567c-.353.192-8.889,4.962-11.356,18.626a24.425,24.425,0,0,0,4.552,18.289,21.806,21.806,0,0,0,15.917,8.386c.155.021,4.947.627,15.76-2.388A4.934,4.934,0,0,1,715.036-445.947Z" transform="translate(-627.184 524.596)" fill="#002e49"/>
    </g>
  </g>
</svg>
