<svg xmlns="http://www.w3.org/2000/svg" viewBox="0 0 193.76 188.35"><defs><style>.cls-1{fill:#5baab4;}.cls-2{fill:#003f5a;}</style></defs><title>Recurso 3</title><g id="Capa_2" data-name="Capa 2"><g id="Camada_1" data-name="Camada 1"><path class="cls-1" d="M114.8,17.16C111.42,9.37,103,4.78,97.91,4a25.69,25.69,0,0,0-10.69.35L87,4.26a31.35,31.35,0,0,0-40,7.16l-.23.35c-11.2.6-20.51,9.55-21.11,20.29-2.66,1.8-9.77,7.67-12,20.22a27.41,27.41,0,0,0,5.16,20.83,24.9,24.9,0,0,0,18.09,9.65c.21,0,5.3.76,16.65-2.38l-.45,2.23c-1.1,5.49-2.77,13.78-3.45,18.18A4,4,0,0,0,51,104.7a3.36,3.36,0,0,0,2.07.7A4.33,4.33,0,0,0,54.8,105c8.22-3.54,13.7-16.9,16.25-24.61A31.23,31.23,0,0,1,75.19,72c4.75-6.35,13.23-10.49,25.21-12.29l.1,0c.53-.06,13.08-1.49,20.31-12.84h0c1.75-2.75,4.08-7,4.08-12.18A20.17,20.17,0,0,0,114.8,17.16Z"/><path class="cls-1" d="M20.15,151.1H18.47a.69.69,0,0,1-.69-.69V130c0-.07,0-.1,0-.1s0,0-.07.07l-4.92,10.18a1.48,1.48,0,0,1-1.55,1H9.63a1.48,1.48,0,0,1-1.55-1L3.16,130c0-.07,0-.07-.07-.07s0,0,0,.1v20.39a.69.69,0,0,1-.69.69H.69a.69.69,0,0,1-.69-.69V126.55a1,1,0,0,1,1-1H3.24c.62,0,.89.14,1.1.58L10,137.92c.14.31.24.38.41.38s.28-.07.41-.38l5.67-11.79c.21-.45.48-.58,1.1-.58h2.24a1,1,0,0,1,1,1v23.86A.69.69,0,0,1,20.15,151.1Z"/><path class="cls-1" d="M28.85,151.1H27a.66.66,0,0,1-.62-.69V126.2a.62.62,0,0,1,.62-.65h1.89a.63.63,0,0,1,.62.65v24.21A.65.65,0,0,1,28.85,151.1Z"/><path class="cls-1" d="M52,151.1H49.9a1.14,1.14,0,0,1-1.1-.55L38.17,130.36c0-.07-.07-.1-.1-.1s0,0,0,.1v20.08a.65.65,0,0,1-.62.65H35.63c-.34,0-.62-.07-.62-.41V126.51a1,1,0,0,1,1-1H37.9c1,0,1.13.17,1.41.69l10.56,20.08.07.1s0-.07,0-.1V126.2a.65.65,0,0,1,.62-.65h1.82a.62.62,0,0,1,.62.65v23.9A1,1,0,0,1,52,151.1Z"/><path class="cls-1" d="M65.2,151.34a49.15,49.15,0,0,1-6.26-.34.78.78,0,0,1-.72-.86V126.51a.81.81,0,0,1,.72-.86,49,49,0,0,1,6.26-.34c6.36,0,10.42,3.27,10.42,10.69v4.64C75.62,148,71.57,151.34,65.2,151.34ZM72.49,136c0-6.22-3.16-8-7.29-8-1.62,0-2.68,0-3.82.1v20.49c1.1.07,2.2.07,3.82.07,4.13,0,7.29-1.82,7.29-8Z"/><path class="cls-1" d="M86.11,151.34a34.4,34.4,0,0,1-5.71-.48c-.58-.1-.65-.24-.65-.62v-1.38a.53.53,0,0,1,.58-.55h.1c1.58.14,4.09.21,5.67.21,4.13,0,5.23-1.65,5.23-4.06,0-1.72-1-2.68-4.13-4.61l-3.34-2c-3.16-1.93-4.75-3.68-4.75-6.43,0-4.16,3-6.09,8.22-6.09a47.67,47.67,0,0,1,6,.41c.34.07.58.24.58.58v1.48a.53.53,0,0,1-.58.55h-.07c-1.51-.1-3.92-.21-5.91-.21-3.54,0-5.06.76-5.06,3.27,0,1.62,1.14,2.58,3.75,4.16l3.16,1.89c4,2.37,5.4,4.26,5.4,7C94.61,147.76,92.89,151.34,86.11,151.34Z"/><path class="cls-1" d="M131.68,126.24l-3.82,23.25a1.85,1.85,0,0,1-2.13,1.75h-1.48a2.07,2.07,0,0,1-2-1.72l-3.37-12.72c-.07-.31-.1-.31-.21-.31h-.06c-.1,0-.14,0-.21.31L115,149.52a2.08,2.08,0,0,1-2,1.72h-1.44a1.85,1.85,0,0,1-2.13-1.75l-3.82-23.25v-.1a.56.56,0,0,1,.58-.58h2a.61.61,0,0,1,.58.58l3.34,21.9c.07.34,0,.52.17.52s.17-.21.24-.52L116,135.32a1.54,1.54,0,0,1,1.62-1.38h2.2a1.55,1.55,0,0,1,1.62,1.38L124.77,148c.07.31.1.52.24.52s.1-.17.17-.52l3.34-21.9a.62.62,0,0,1,.58-.58h2a.56.56,0,0,1,.58.58A.31.31,0,0,1,131.68,126.24Z"/><path class="cls-1" d="M138.21,151.1h-1.89a.66.66,0,0,1-.62-.69V126.2a.62.62,0,0,1,.62-.65h1.89a.63.63,0,0,1,.62.65v24.21A.65.65,0,0,1,138.21,151.1Z"/><path class="cls-1" d="M160.12,128.23h-6.71v22.18a.66.66,0,0,1-.62.69H150.9a.66.66,0,0,1-.62-.69V128.23h-6.71c-.38,0-.69-.17-.69-.55v-1.51a.66.66,0,0,1,.69-.62h16.54a.6.6,0,0,1,.65.62v1.51C160.77,128,160.5,128.23,160.12,128.23Z"/><path class="cls-1" d="M181.82,151.1h-1.75a.69.69,0,0,1-.69-.69V139H167.62v11.42a.69.69,0,0,1-.69.69h-1.75a.69.69,0,0,1-.69-.69V126.24a.69.69,0,0,1,.69-.69h1.75a.69.69,0,0,1,.69.69v10h11.76v-10a.69.69,0,0,1,.69-.69h1.75a.69.69,0,0,1,.69.69v24.17A.69.69,0,0,1,181.82,151.1Z"/><path class="cls-2" d="M10.53,177.25c-1,0-2.31-.08-3.34-.12v10a.83.83,0,0,1-.83.83H1a.8.8,0,0,1-.83-.78V159.48c0-1.4.58-1.77,1.86-2a60.74,60.74,0,0,1,8.38-.54c6.23,0,12.38,2.19,12.38,9.95v.37C22.82,175,16.67,177.25,10.53,177.25Zm5.28-10.36c0-2.93-1.82-4.09-5.28-4.09-.58,0-2.85.08-3.34.12v8.42c.45,0,2.89.08,3.34.08,3.67,0,5.28-1.36,5.28-4.17Z"/><path class="cls-2" d="M38.83,188.35c-6.56,0-11.89-2.48-11.89-11.89V158.1a.79.79,0,0,1,.83-.78h5.41a.8.8,0,0,1,.83.78v18.36c0,4.21,1.11,6,4.83,6s4.87-1.77,4.87-6V158.1a.79.79,0,0,1,.83-.78H49.9a.84.84,0,0,1,.87.78v18.36C50.76,185.87,45.4,188.35,38.83,188.35Z"/><path class="cls-2" d="M79.48,188H73.17c-.45,0-.62-.41-.83-.83l-5.53-10.44-.45,0c-.87,0-2.15-.08-2.93-.08v10.48a.83.83,0,0,1-.83.83H57.24a.83.83,0,0,1-.83-.83V159.46c0-1.4.58-1.77,1.86-2a65.11,65.11,0,0,1,8.38-.54c7,0,12.42,2.35,12.42,9.66v.54a8.31,8.31,0,0,1-5.32,8.25L80,187a1.12,1.12,0,0,1,.12.45C80.1,187.77,79.94,188,79.48,188ZM72.06,166.6c0-2.52-1.94-3.67-5.41-3.67-.58,0-2.72.08-3.22.12V171c.45,0,2.48.08,2.93.08,4.33,0,5.7-1.11,5.7-3.92v-.53Z"/><path class="cls-2" d="M94.79,177.25c-1,0-2.31-.08-3.34-.12v10a.83.83,0,0,1-.83.83H85.3a.8.8,0,0,1-.83-.78V159.48c0-1.4.58-1.77,1.86-2a60.74,60.74,0,0,1,8.38-.54c6.23,0,12.38,2.19,12.38,9.95v.37C107.09,175,100.94,177.25,94.79,177.25Zm5.29-10.36c0-2.93-1.82-4.09-5.28-4.09-.58,0-2.85.08-3.34.12v8.42c.45,0,2.89.08,3.34.08,3.67,0,5.28-1.36,5.28-4.17Z"/><path class="cls-2" d="M122.86,188.35c-6.81,0-12.22-3.67-12.22-13.25v-4.91c0-9.57,5.41-13.25,12.22-13.25s12.22,3.67,12.22,13.25v4.91C135.07,184.68,129.66,188.35,122.86,188.35ZM128,170.19c0-4.95-1.65-7.06-5.12-7.06s-5.08,2.1-5.08,7.06v4.91c0,5,1.61,7.06,5.08,7.06s5.12-2.1,5.12-7.06Z"/><path class="cls-2" d="M148.52,188.35a30.44,30.44,0,0,1-7.8-.91c-.41-.12-.83-.37-.83-.83v-4a.68.68,0,0,1,.74-.78h.12c1.69.16,6.23.49,7.84.49,2.85,0,3.67-.91,3.67-2.89,0-1.2-.58-1.86-2.72-3.14l-5.69-3.38C140,170.6,139,168,139,165c0-4.54,2.56-8.05,10.56-8.05a45.79,45.79,0,0,1,8.75.91.72.72,0,0,1,.62.74v4.17a.63.63,0,0,1-.7.7h-.08c-1.16-.08-5.94-.45-8.75-.45-2.35,0-3.22.7-3.22,2.19,0,1.16.54,1.69,2.77,2.89l5.28,2.85c4.29,2.31,5.57,5,5.57,8.38C159.79,183.69,156.9,188.35,148.52,188.35Z"/><path class="cls-2" d="M182.32,187.81a48.07,48.07,0,0,1-8,.54c-5.32,0-10-1.36-10-8.87v-13.7c0-7.51,4.75-8.83,10.07-8.83a47.28,47.28,0,0,1,8,.54c.58.08.83.29.83.83v3.84a.83.83,0,0,1-.83.83h-8.38c-1.94,0-2.64.66-2.64,2.81v3.76H182a.83.83,0,0,1,.83.83v3.92a.83.83,0,0,1-.83.83H171.29v4.37c0,2.15.7,2.81,2.64,2.81h8.38a.83.83,0,0,1,.83.83V187C183.15,187.48,182.9,187.73,182.32,187.81Z"/><path class="cls-2" d="M97.75,105.39a3.28,3.28,0,0,1-2.07-.7,4,4,0,0,1-1.35-3.91C95,96.36,96.69,88,97.79,82.53l.43-2.16c-11.35,3.14-16.43,2.41-16.65,2.38A24.88,24.88,0,0,1,63.48,73.1a27.41,27.41,0,0,1-5.16-20.82c2.27-12.55,9.37-18.43,12-20.22.6-10.74,9.91-19.68,21.11-20.29l.23-.35a31.35,31.35,0,0,1,40-7.16l.19.08A25.5,25.5,0,0,1,142.56,4c5,.8,13.51,5.38,16.89,13.17a20.21,20.21,0,0,1,10.11,17.52c0,5.17-2.33,9.43-4.08,12.18h0c-7.23,11.35-19.78,12.79-20.31,12.84l-.1,0c-12,1.8-20.46,5.94-25.21,12.29a31.93,31.93,0,0,0-4.14,8.4c-2.55,7.7-8,21.07-16.25,24.61A4.41,4.41,0,0,1,97.75,105.39Zm.88-29a3.56,3.56,0,0,1,2.45.92,3.8,3.8,0,0,1,1,3.63l-.48,2.37c-1.09,5.44-2.75,13.65-3.42,18,6.93-3.27,12-16.49,13.8-22.07a35.11,35.11,0,0,1,4.73-9.57c5.39-7.2,14.73-11.85,27.76-13.81l.19,0c.2,0,11.32-1.34,17.51-11.07h0c2.37-3.72,3.47-6.92,3.47-10.08A16.32,16.32,0,0,0,157,20.25l-.64-.34-.43-1.1c-2.7-6.44-10-10.37-14-11l-.2,0a22.31,22.31,0,0,0-9.52.48l-.6.14-1.75-.71a27.45,27.45,0,0,0-35,6l-1,1.9H92.66c-9.82,0-18.44,8.19-18.44,17.52v1.17l-1,.55c-.34.19-8.63,4.82-11,18.09a23.69,23.69,0,0,0,4.42,17.76A21.23,21.23,0,0,0,82,78.88c.15,0,4.81.61,15.31-2.32A5.45,5.45,0,0,1,98.63,76.39Z"/><path class="cls-2" d="M190,132.75a3.76,3.76,0,1,1,3.78-3.75A3.75,3.75,0,0,1,190,132.75Zm0-7a3.2,3.2,0,1,0,3.21,3.21A3.23,3.23,0,0,0,190,125.79Zm1.59,5.53h-.39a.23.23,0,0,1-.17-.11l-1.13-1.79-.17,0h-.56v1.74a.21.21,0,0,1-.2.21h-.35a.2.2,0,0,1-.18-.21v-4.23a.27.27,0,0,1,.25-.31c.21,0,.76,0,1.06,0,1.16,0,1.83.35,1.83,1.42V128a1.18,1.18,0,0,1-.94,1.26L191.7,131a.42.42,0,0,1,0,.13C191.74,131.24,191.7,131.32,191.57,131.32Zm-.7-3.37c0-.56-.32-.76-1.09-.76h-.65v1.57h.64c.78,0,1.09-.21,1.09-.77v0Z"/></g></g></svg>